<svg width="639" height="1234" viewBox="0 0 639 1234" fill="none" xmlns="http://www.w3.org/2000/svg">
<g filter="url(#filter0_d_24_169)">
<path d="M577 28C577 32.4183 580.582 36 585 36C589.418 36 593 32.4183 593 28C593 23.5817 589.418 20 585 20C580.582 20 577 23.5817 577 28ZM442.5 28V26.5H441.879L441.439 26.9393L442.5 28ZM353 117.5V119H353.621L354.061 118.561L353 117.5ZM162 117.5C162 121.918 165.582 125.5 170 125.5C174.418 125.5 178 121.918 178 117.5C178 113.082 174.418 109.5 170 109.5C165.582 109.5 162 113.082 162 117.5ZM577 79.5C577 83.9183 580.582 87.5 585 87.5C589.418 87.5 593 83.9183 593 79.5C593 75.0817 589.418 71.5 585 71.5C580.582 71.5 577 75.0817 577 79.5ZM489 79.5V78H488.379L487.939 78.4393L489 79.5ZM353 215.5V217H353.621L354.061 216.561L353 215.5ZM22 215.5C22 219.918 25.5817 223.5 30 223.5C34.4183 223.5 38 219.918 38 215.5C38 211.082 34.4183 207.5 30 207.5C25.5817 207.5 22 211.082 22 215.5ZM604 148C604 152.418 607.582 156 612 156C616.418 156 620 152.418 620 148C620 143.582 616.418 140 612 140C607.582 140 604 143.582 604 148ZM501.5 148V146.5H497.879L500.439 149.061L501.5 148ZM577 231.5C577 235.918 580.582 239.5 585 239.5C589.418 239.5 593 235.918 593 231.5C593 227.082 589.418 223.5 585 223.5C580.582 223.5 577 227.082 577 231.5ZM577 295.5C577 299.918 580.582 303.5 585 303.5C589.418 303.5 593 299.918 593 295.5C593 291.082 589.418 287.5 585 287.5C580.582 287.5 577 291.082 577 295.5ZM422 295.5C422 299.918 425.582 303.5 430 303.5C434.418 303.5 438 299.918 438 295.5C438 291.082 434.418 287.5 430 287.5C425.582 287.5 422 291.082 422 295.5ZM577 374C577 378.418 580.582 382 585 382C589.418 382 593 378.418 593 374C593 369.582 589.418 366 585 366C580.582 366 577 369.582 577 374ZM140 374C140 378.418 143.582 382 148 382C152.418 382 156 378.418 156 374C156 369.582 152.418 366 148 366C143.582 366 140 369.582 140 374ZM577 332.5C577 336.918 580.582 340.5 585 340.5C589.418 340.5 593 336.918 593 332.5C593 328.082 589.418 324.5 585 324.5C580.582 324.5 577 328.082 577 332.5ZM284.5 332.5C284.5 336.918 288.082 340.5 292.5 340.5C296.918 340.5 300.5 336.918 300.5 332.5C300.5 328.082 296.918 324.5 292.5 324.5C288.082 324.5 284.5 328.082 284.5 332.5ZM577 261C577 265.418 580.582 269 585 269C589.418 269 593 265.418 593 261C593 256.582 589.418 253 585 253C580.582 253 577 256.582 577 261ZM246 261V259.5H245.379L244.939 259.939L246 261ZM203.5 295.5C203.5 299.918 207.082 303.5 211.5 303.5C215.918 303.5 219.5 299.918 219.5 295.5C219.5 291.082 215.918 287.5 211.5 287.5C207.082 287.5 203.5 291.082 203.5 295.5ZM577 117.5C577 121.918 580.582 125.5 585 125.5C589.418 125.5 593 121.918 593 117.5C593 113.082 589.418 109.5 585 109.5C580.582 109.5 577 113.082 577 117.5ZM489 117.5V116H488.379L487.939 116.439L489 117.5ZM400.5 198C400.5 202.418 404.082 206 408.5 206C412.918 206 416.5 202.418 416.5 198C416.5 193.582 412.918 190 408.5 190C404.082 190 400.5 193.582 400.5 198ZM162 165.5C162 169.918 165.582 173.5 170 173.5C174.418 173.5 178 169.918 178 165.5C178 161.082 174.418 157.5 170 157.5C165.582 157.5 162 161.082 162 165.5ZM353 165.5V167H353.621L354.061 166.561L353 165.5ZM412 98.5C412 102.918 415.582 106.5 420 106.5C424.418 106.5 428 102.918 428 98.5C428 94.0817 424.418 90.5 420 90.5C415.582 90.5 412 94.0817 412 98.5ZM22 261C22 265.418 25.5817 269 30 269C34.4183 269 38 265.418 38 261C38 256.582 34.4183 253 30 253C25.5817 253 22 256.582 22 261ZM170 261H171.5V259.5H170V261ZM162 332.5C162 336.918 165.582 340.5 170 340.5C174.418 340.5 178 336.918 178 332.5C178 328.082 174.418 324.5 170 324.5C165.582 324.5 162 328.082 162 332.5ZM22 448C22 452.418 25.5817 456 30 456C34.4183 456 38 452.418 38 448C38 443.582 34.4183 440 30 440C25.5817 440 22 443.582 22 448ZM420 448L421.061 446.939L420.621 446.5H420V448ZM523 551L521.939 552.061L522.379 552.5H523V551ZM577 551C577 555.418 580.582 559 585 559C589.418 559 593 555.418 593 551C593 546.582 589.418 543 585 543C580.582 543 577 546.582 577 551ZM577 516.5C577 520.918 580.582 524.5 585 524.5C589.418 524.5 593 520.918 593 516.5C593 512.082 589.418 508.5 585 508.5C580.582 508.5 577 512.082 577 516.5ZM523 516.5L521.939 517.561L522.379 518H523V516.5ZM454.5 448V446.5H450.879L453.439 449.061L454.5 448ZM577 448C577 452.418 580.582 456 585 456C589.418 456 593 452.418 593 448C593 443.582 589.418 440 585 440C580.582 440 577 443.582 577 448ZM577 413.5C577 417.918 580.582 421.5 585 421.5C589.418 421.5 593 417.918 593 413.5C593 409.082 589.418 405.5 585 405.5C580.582 405.5 577 409.082 577 413.5ZM345 413.5C345 417.918 348.582 421.5 353 421.5C357.418 421.5 361 417.918 361 413.5C361 409.082 357.418 405.5 353 405.5C348.582 405.5 345 409.082 345 413.5ZM22 308C22 312.418 25.5817 316 30 316C34.4183 316 38 312.418 38 308C38 303.582 34.4183 300 30 300C25.5817 300 22 303.582 22 308ZM148 426L146.939 427.061L147.379 427.5H148V426ZM284.5 426C284.5 430.418 288.082 434 292.5 434C296.918 434 300.5 430.418 300.5 426C300.5 421.582 296.918 418 292.5 418C288.082 418 284.5 421.582 284.5 426ZM140 484.5C140 488.918 143.582 492.5 148 492.5C152.418 492.5 156 488.918 156 484.5C156 480.082 152.418 476.5 148 476.5C143.582 476.5 140 480.082 140 484.5ZM420 484.5L421.061 483.439L420.621 483H420V484.5ZM478.5 551C478.5 555.418 482.082 559 486.5 559C490.918 559 494.5 555.418 494.5 551C494.5 546.582 490.918 543 486.5 543C482.082 543 478.5 546.582 478.5 551ZM577 607.5C577 611.918 580.582 615.5 585 615.5C589.418 615.5 593 611.918 593 607.5C593 603.082 589.418 599.5 585 599.5C580.582 599.5 577 603.082 577 607.5ZM420 607.5L418.939 608.561L419.379 609H420V607.5ZM373.5 561L374.561 559.939L374.121 559.5H373.5V561ZM140 561C140 565.418 143.582 569 148 569C152.418 569 156 565.418 156 561C156 556.582 152.418 553 148 553C143.582 553 140 556.582 140 561ZM585 26.5H442.5V29.5H585V26.5ZM441.439 26.9393L351.939 116.439L354.061 118.561L443.561 29.0607L441.439 26.9393ZM353 116H170V119H353V116ZM585 78H489V81H585V78ZM487.939 78.4393L351.939 214.439L354.061 216.561L490.061 80.5607L487.939 78.4393ZM353 214H30V217H353V214ZM612 146.5H501.5V149.5H612V146.5ZM500.439 149.061L583.939 232.561L586.061 230.439L502.561 146.939L500.439 149.061ZM585 294H430V297H585V294ZM585 372.5H148V375.5H585V372.5ZM585 331H292.5V334H585V331ZM585 259.5H246V262.5H585V259.5ZM244.939 259.939L210.439 294.439L212.561 296.561L247.061 262.061L244.939 259.939ZM585 116H489V119H585V116ZM487.939 116.439L407.439 196.939L409.561 199.061L490.061 118.561L487.939 116.439ZM170 167H353V164H170V167ZM354.061 166.561L421.061 99.5607L418.939 97.4393L351.939 164.439L354.061 166.561ZM30 262.5H170V259.5H30V262.5ZM168.5 261V332.5H171.5V261H168.5ZM30 449.5H420V446.5H30V449.5ZM418.939 449.061L521.939 552.061L524.061 549.939L421.061 446.939L418.939 449.061ZM523 552.5H585V549.5H523V552.5ZM585 515H523V518H585V515ZM524.061 515.439L455.561 446.939L453.439 449.061L521.939 517.561L524.061 515.439ZM454.5 449.5H585V446.5H454.5V449.5ZM585 412H353V415H585V412ZM28.9393 309.061L146.939 427.061L149.061 424.939L31.0607 306.939L28.9393 309.061ZM148 427.5H292.5V424.5H148V427.5ZM148 486H420V483H148V486ZM418.939 485.561L485.439 552.061L487.561 549.939L421.061 483.439L418.939 485.561ZM585 606H420V609H585V606ZM421.061 606.439L374.561 559.939L372.439 562.061L418.939 608.561L421.061 606.439ZM373.5 559.5H148V562.5H373.5V559.5Z" fill="url(#paint0_linear_24_169)"/>
<path d="M576.5 1206C576.5 1201.58 580.082 1198 584.5 1198C588.918 1198 592.5 1201.58 592.5 1206C592.5 1210.42 588.918 1214 584.5 1214C580.082 1214 576.5 1210.42 576.5 1206ZM442 1206V1207.5H441.379L440.939 1207.06L442 1206ZM352.5 1116.5V1115H353.121L353.561 1115.44L352.5 1116.5ZM161.5 1116.5C161.5 1112.08 165.082 1108.5 169.5 1108.5C173.918 1108.5 177.5 1112.08 177.5 1116.5C177.5 1120.92 173.918 1124.5 169.5 1124.5C165.082 1124.5 161.5 1120.92 161.5 1116.5ZM576.5 1154.5C576.5 1150.08 580.082 1146.5 584.5 1146.5C588.918 1146.5 592.5 1150.08 592.5 1154.5C592.5 1158.92 588.918 1162.5 584.5 1162.5C580.082 1162.5 576.5 1158.92 576.5 1154.5ZM488.5 1154.5V1156H487.879L487.439 1155.56L488.5 1154.5ZM352.5 1018.5V1017H353.121L353.561 1017.44L352.5 1018.5ZM21.5 1018.5C21.5 1014.08 25.0817 1010.5 29.5 1010.5C33.9183 1010.5 37.5 1014.08 37.5 1018.5C37.5 1022.92 33.9183 1026.5 29.5 1026.5C25.0817 1026.5 21.5 1022.92 21.5 1018.5ZM603.5 1086C603.5 1081.58 607.082 1078 611.5 1078C615.918 1078 619.5 1081.58 619.5 1086C619.5 1090.42 615.918 1094 611.5 1094C607.082 1094 603.5 1090.42 603.5 1086ZM501 1086V1087.5H497.379L499.939 1084.94L501 1086ZM576.5 1002.5C576.5 998.082 580.082 994.5 584.5 994.5C588.918 994.5 592.5 998.082 592.5 1002.5C592.5 1006.92 588.918 1010.5 584.5 1010.5C580.082 1010.5 576.5 1006.92 576.5 1002.5ZM576.5 938.5C576.5 934.082 580.082 930.5 584.5 930.5C588.918 930.5 592.5 934.082 592.5 938.5C592.5 942.918 588.918 946.5 584.5 946.5C580.082 946.5 576.5 942.918 576.5 938.5ZM421.5 938.5C421.5 934.082 425.082 930.5 429.5 930.5C433.918 930.5 437.5 934.082 437.5 938.5C437.5 942.918 433.918 946.5 429.5 946.5C425.082 946.5 421.5 942.918 421.5 938.5ZM576.5 860C576.5 855.582 580.082 852 584.5 852C588.918 852 592.5 855.582 592.5 860C592.5 864.418 588.918 868 584.5 868C580.082 868 576.5 864.418 576.5 860ZM139.5 860C139.5 855.582 143.082 852 147.5 852C151.918 852 155.5 855.582 155.5 860C155.5 864.418 151.918 868 147.5 868C143.082 868 139.5 864.418 139.5 860ZM576.5 901.5C576.5 897.082 580.082 893.5 584.5 893.5C588.918 893.5 592.5 897.082 592.5 901.5C592.5 905.918 588.918 909.5 584.5 909.5C580.082 909.5 576.5 905.918 576.5 901.5ZM284 901.5C284 897.082 287.582 893.5 292 893.5C296.418 893.5 300 897.082 300 901.5C300 905.918 296.418 909.5 292 909.5C287.582 909.5 284 905.918 284 901.5ZM576.5 973C576.5 968.582 580.082 965 584.5 965C588.918 965 592.5 968.582 592.5 973C592.5 977.418 588.918 981 584.5 981C580.082 981 576.5 977.418 576.5 973ZM245.5 973V974.5H244.879L244.439 974.061L245.5 973ZM203 938.5C203 934.082 206.582 930.5 211 930.5C215.418 930.5 219 934.082 219 938.5C219 942.918 215.418 946.5 211 946.5C206.582 946.5 203 942.918 203 938.5ZM576.5 1116.5C576.5 1112.08 580.082 1108.5 584.5 1108.5C588.918 1108.5 592.5 1112.08 592.5 1116.5C592.5 1120.92 588.918 1124.5 584.5 1124.5C580.082 1124.5 576.5 1120.92 576.5 1116.5ZM488.5 1116.5V1118H487.879L487.439 1117.56L488.5 1116.5ZM400 1036C400 1031.58 403.582 1028 408 1028C412.418 1028 416 1031.58 416 1036C416 1040.42 412.418 1044 408 1044C403.582 1044 400 1040.42 400 1036ZM161.5 1068.5C161.5 1064.08 165.082 1060.5 169.5 1060.5C173.918 1060.5 177.5 1064.08 177.5 1068.5C177.5 1072.92 173.918 1076.5 169.5 1076.5C165.082 1076.5 161.5 1072.92 161.5 1068.5ZM352.5 1068.5V1067H353.121L353.561 1067.44L352.5 1068.5ZM411.5 1135.5C411.5 1131.08 415.082 1127.5 419.5 1127.5C423.918 1127.5 427.5 1131.08 427.5 1135.5C427.5 1139.92 423.918 1143.5 419.5 1143.5C415.082 1143.5 411.5 1139.92 411.5 1135.5ZM21.5 973C21.5 968.582 25.0817 965 29.5 965C33.9183 965 37.5 968.582 37.5 973C37.5 977.418 33.9183 981 29.5 981C25.0817 981 21.5 977.418 21.5 973ZM169.5 973H171V974.5H169.5V973ZM161.5 901.5C161.5 897.082 165.082 893.5 169.5 893.5C173.918 893.5 177.5 897.082 177.5 901.5C177.5 905.918 173.918 909.5 169.5 909.5C165.082 909.5 161.5 905.918 161.5 901.5ZM21.5 786C21.5 781.582 25.0817 778 29.5 778C33.9183 778 37.5 781.582 37.5 786C37.5 790.418 33.9183 794 29.5 794C25.0817 794 21.5 790.418 21.5 786ZM419.5 786L420.561 787.061L420.121 787.5H419.5V786ZM522.5 683L521.439 681.939L521.879 681.5H522.5V683ZM576.5 683C576.5 678.582 580.082 675 584.5 675C588.918 675 592.5 678.582 592.5 683C592.5 687.418 588.918 691 584.5 691C580.082 691 576.5 687.418 576.5 683ZM576.5 717.5C576.5 713.082 580.082 709.5 584.5 709.5C588.918 709.5 592.5 713.082 592.5 717.5C592.5 721.918 588.918 725.5 584.5 725.5C580.082 725.5 576.5 721.918 576.5 717.5ZM522.5 717.5L521.439 716.439L521.879 716H522.5V717.5ZM454 786V787.5H450.379L452.939 784.939L454 786ZM576.5 786C576.5 781.582 580.082 778 584.5 778C588.918 778 592.5 781.582 592.5 786C592.5 790.418 588.918 794 584.5 794C580.082 794 576.5 790.418 576.5 786ZM576.5 820.5C576.5 816.082 580.082 812.5 584.5 812.5C588.918 812.5 592.5 816.082 592.5 820.5C592.5 824.918 588.918 828.5 584.5 828.5C580.082 828.5 576.5 824.918 576.5 820.5ZM344.5 820.5C344.5 816.082 348.082 812.5 352.5 812.5C356.918 812.5 360.5 816.082 360.5 820.5C360.5 824.918 356.918 828.5 352.5 828.5C348.082 828.5 344.5 824.918 344.5 820.5ZM21.5 926C21.5 921.582 25.0817 918 29.5 918C33.9183 918 37.5 921.582 37.5 926C37.5 930.418 33.9183 934 29.5 934C25.0817 934 21.5 930.418 21.5 926ZM147.5 808L146.439 806.939L146.879 806.5H147.5V808ZM284 808C284 803.582 287.582 800 292 800C296.418 800 300 803.582 300 808C300 812.418 296.418 816 292 816C287.582 816 284 812.418 284 808ZM139.5 749.5C139.5 745.082 143.082 741.5 147.5 741.5C151.918 741.5 155.5 745.082 155.5 749.5C155.5 753.918 151.918 757.5 147.5 757.5C143.082 757.5 139.5 753.918 139.5 749.5ZM419.5 749.5L420.561 750.561L420.121 751H419.5V749.5ZM478 683C478 678.582 481.582 675 486 675C490.418 675 494 678.582 494 683C494 687.418 490.418 691 486 691C481.582 691 478 687.418 478 683ZM576.5 626.5C576.5 622.082 580.082 618.5 584.5 618.5C588.918 618.5 592.5 622.082 592.5 626.5C592.5 630.918 588.918 634.5 584.5 634.5C580.082 634.5 576.5 630.918 576.5 626.5ZM419.5 626.5L418.439 625.439L418.879 625H419.5V626.5ZM373 673L374.061 674.061L373.621 674.5H373V673ZM139.5 673C139.5 668.582 143.082 665 147.5 665C151.918 665 155.5 668.582 155.5 673C155.5 677.418 151.918 681 147.5 681C143.082 681 139.5 677.418 139.5 673ZM584.5 1207.5H442V1204.5H584.5V1207.5ZM440.939 1207.06L351.439 1117.56L353.561 1115.44L443.061 1204.94L440.939 1207.06ZM352.5 1118H169.5V1115H352.5V1118ZM584.5 1156H488.5V1153H584.5V1156ZM487.439 1155.56L351.439 1019.56L353.561 1017.44L489.561 1153.44L487.439 1155.56ZM352.5 1020H29.5V1017H352.5V1020ZM611.5 1087.5H501V1084.5H611.5V1087.5ZM499.939 1084.94L583.439 1001.44L585.561 1003.56L502.061 1087.06L499.939 1084.94ZM584.5 940H429.5V937H584.5V940ZM584.5 861.5H147.5V858.5H584.5V861.5ZM584.5 903H292V900H584.5V903ZM584.5 974.5H245.5V971.5H584.5V974.5ZM244.439 974.061L209.939 939.561L212.061 937.439L246.561 971.939L244.439 974.061ZM584.5 1118H488.5V1115H584.5V1118ZM487.439 1117.56L406.939 1037.06L409.061 1034.94L489.561 1115.44L487.439 1117.56ZM169.5 1067H352.5V1070H169.5V1067ZM353.561 1067.44L420.561 1134.44L418.439 1136.56L351.439 1069.56L353.561 1067.44ZM29.5 971.5H169.5V974.5H29.5V971.5ZM168 973V901.5H171V973H168ZM29.5 784.5H419.5V787.5H29.5V784.5ZM418.439 784.939L521.439 681.939L523.561 684.061L420.561 787.061L418.439 784.939ZM522.5 681.5H584.5V684.5H522.5V681.5ZM584.5 719H522.5V716H584.5V719ZM523.561 718.561L455.061 787.061L452.939 784.939L521.439 716.439L523.561 718.561ZM454 784.5H584.5V787.5H454V784.5ZM584.5 822H352.5V819H584.5V822ZM28.4393 924.939L146.439 806.939L148.561 809.061L30.5607 927.061L28.4393 924.939ZM147.5 806.5H292V809.5H147.5V806.5ZM147.5 748H419.5V751H147.5V748ZM418.439 748.439L484.939 681.939L487.061 684.061L420.561 750.561L418.439 748.439ZM584.5 628H419.5V625H584.5V628ZM420.561 627.561L374.061 674.061L371.939 671.939L418.439 625.439L420.561 627.561ZM373 674.5H147.5V671.5H373V674.5Z" fill="url(#paint1_linear_24_169)"/>
</g>
<defs>
<filter id="filter0_d_24_169" x="0.5" y="0" width="638.5" height="1234" filterUnits="userSpaceOnUse" color-interpolation-filters="sRGB">
<feFlood flood-opacity="0" result="BackgroundImageFix"/>
<feColorMatrix in="SourceAlpha" type="matrix" values="0 0 0 0 0 0 0 0 0 0 0 0 0 0 0 0 0 0 127 0" result="hardAlpha"/>
<feOffset dx="-1"/>
<feGaussianBlur stdDeviation="10"/>
<feComposite in2="hardAlpha" operator="out"/>
<feColorMatrix type="matrix" values="0 0 0 0 0 0 0 0 0 0.854167 0 0 0 0 0.700417 0 0 0 1 0"/>
<feBlend mode="normal" in2="BackgroundImageFix" result="effect1_dropShadow_24_169"/>
<feBlend mode="normal" in="SourceGraphic" in2="effect1_dropShadow_24_169" result="shape"/>
</filter>
<linearGradient id="paint0_linear_24_169" x1="321" y1="28" x2="321" y2="607.5" gradientUnits="userSpaceOnUse">
<stop stop-color="#0DD7B2"/>
<stop offset="1" stop-color="#003030"/>
</linearGradient>
<linearGradient id="paint1_linear_24_169" x1="320.5" y1="1206" x2="320.5" y2="626.5" gradientUnits="userSpaceOnUse">
<stop stop-color="#0DD7B2"/>
<stop offset="1" stop-color="#003030"/>
</linearGradient>
</defs>
</svg>
