<svg width="332" height="332" viewBox="0 0 332 332" fill="none" xmlns="http://www.w3.org/2000/svg">
<circle cx="166.5" cy="162.5" r="135.5" fill="#20AC93"/>
<g filter="url(#filter0_d_20_122)">
<path d="M166 39.0001C98.1323 39.0001 43 94.1324 43 162C43 229.868 98.1323 285 166 285C233.868 285 289 229.868 289 162C289 94.1324 233.868 39.0001 166 39.0001ZM166 49.6958C228.087 49.6958 278.304 99.9128 278.304 162C278.304 224.087 228.087 274.304 166 274.304C103.913 274.304 53.6957 224.087 53.6957 162C53.6957 99.9128 103.913 49.6958 166 49.6958ZM118.068 92.4679C117.349 92.4413 116.632 92.56 115.961 92.8168C115.289 93.0736 114.676 93.4633 114.158 93.9625C113.64 94.4618 113.228 95.0604 112.947 95.7224C112.666 96.3845 112.521 97.0965 112.522 97.8158V163.473C112.522 200.3 139.774 233.663 177.009 231.501C178.949 231.389 180.896 231.184 182.869 230.874C183.74 230.738 184.564 230.388 185.268 229.856C185.971 229.324 186.532 228.626 186.9 227.824C191.964 216.864 192.144 209.06 192.708 199.947C192.711 199.896 192.725 199.851 192.729 199.8C192.729 199.787 192.729 199.773 192.729 199.759C193.78 182.935 188.412 165.214 177.751 148.933C194.999 164.075 203.311 180.984 203.435 199.435C203.431 208.35 198.359 224.472 198.359 224.472C197.968 225.644 197.996 226.917 198.438 228.071C198.879 229.226 199.707 230.192 200.781 230.805C201.854 231.418 203.107 231.64 204.326 231.434C205.545 231.228 206.655 230.605 207.467 229.673C207.467 229.673 220.337 215.297 225.672 200.793C225.676 200.782 225.679 200.772 225.683 200.761C234.633 175.999 230.08 149.185 211.853 128.702C193.627 108.218 162.225 94.1001 118.068 92.4679ZM123.217 103.79C162.029 106.33 188.835 118.925 203.863 135.815C219.646 153.553 223.369 175.7 215.624 197.127C215.291 198.029 214.494 198.929 214.068 199.863C214.069 199.718 214.13 199.569 214.13 199.424C214.13 199.414 214.13 199.404 214.13 199.393C213.914 165.778 191.893 135.526 142.091 114.684C142.055 114.663 142.034 114.633 141.997 114.611L141.987 114.632C141.725 114.523 141.571 114.375 141.308 114.267C140.059 113.749 138.661 113.724 137.394 114.196C136.128 114.667 135.086 115.601 134.48 116.81C133.874 118.018 133.748 119.411 134.127 120.708C134.507 122.005 135.363 123.111 136.524 123.803C169.578 143.477 183.66 173.397 182.054 199.09C181.528 207.524 181.106 212.961 178.043 220.649C177.494 220.699 176.924 220.795 176.382 220.826C145.818 222.601 123.217 195.108 123.217 163.473V103.79Z" fill="white"/>
</g>
<defs>
<filter id="filter0_d_20_122" x="0" y="0.00012207" width="332" height="332" filterUnits="userSpaceOnUse" color-interpolation-filters="sRGB">
<feFlood flood-opacity="0" result="BackgroundImageFix"/>
<feColorMatrix in="SourceAlpha" type="matrix" values="0 0 0 0 0 0 0 0 0 0 0 0 0 0 0 0 0 0 127 0" result="hardAlpha"/>
<feOffset dy="4"/>
<feGaussianBlur stdDeviation="21.5"/>
<feComposite in2="hardAlpha" operator="out"/>
<feColorMatrix type="matrix" values="0 0 0 0 0 0 0 0 0 0.854167 0 0 0 0 0.700417 0 0 0 1 0"/>
<feBlend mode="normal" in2="BackgroundImageFix" result="effect1_dropShadow_20_122"/>
<feBlend mode="normal" in="SourceGraphic" in2="effect1_dropShadow_20_122" result="shape"/>
</filter>
</defs>
</svg>
