<svg width="271" height="271" viewBox="0 0 271 271" fill="none" xmlns="http://www.w3.org/2000/svg">
<circle cx="135.5" cy="135.5" r="135.5" fill="#20AC93"/>
<g filter="url(#filter0_d_20_123)">
<path d="M134.942 48.0005C134.274 48.0115 133.623 48.2093 133.06 48.5717C132.498 48.9341 132.047 49.4469 131.757 50.0526L81.6135 129.364C81.5308 129.486 81.4556 129.614 81.3885 129.746C81.3861 129.748 81.3838 129.75 81.3814 129.753C81.3293 129.859 81.2824 129.968 81.2408 130.078C81.1544 130.305 81.0908 130.54 81.051 130.779C81.0107 131.017 80.9942 131.259 81.0018 131.501C81.0018 131.503 81.0018 131.505 81.0018 131.508C81.0054 131.626 81.0148 131.744 81.0299 131.862C81.0344 131.885 81.039 131.909 81.044 131.932C81.0728 132.112 81.1151 132.29 81.1705 132.463C81.1794 132.496 81.1888 132.529 81.1986 132.562C81.1986 132.564 81.1986 132.567 81.1986 132.569C81.2377 132.682 81.2823 132.793 81.3322 132.902C81.3322 132.904 81.3322 132.906 81.3322 132.909C81.3834 133.015 81.4397 133.119 81.501 133.22C81.501 133.223 81.501 133.225 81.501 133.227C81.5617 133.33 81.6274 133.429 81.6978 133.524C81.732 133.568 81.7672 133.61 81.8033 133.652C81.844 133.705 81.8862 133.757 81.9298 133.808C82.0077 133.896 82.0898 133.981 82.1759 134.062C82.1783 134.065 82.1806 134.067 82.183 134.069C82.3585 134.229 82.5492 134.372 82.7525 134.494C82.7548 134.496 82.7571 134.499 82.7595 134.501C82.7782 134.511 82.7969 134.52 82.8157 134.529C82.8181 134.532 82.8204 134.534 82.8228 134.536L132.763 163.259C133.395 163.761 134.176 164.036 134.982 164.038C135.787 164.041 136.571 163.772 137.206 163.273L187.104 134.572C187.13 134.558 187.155 134.544 187.181 134.529C187.26 134.483 187.338 134.433 187.413 134.381C187.437 134.364 187.46 134.348 187.483 134.331C187.5 134.317 187.516 134.303 187.533 134.289C187.607 134.237 187.68 134.183 187.751 134.126C187.755 134.121 187.76 134.117 187.765 134.112C187.779 134.1 187.793 134.088 187.807 134.076C187.882 134.006 187.955 133.933 188.025 133.857C188.107 133.769 188.184 133.677 188.257 133.581C188.327 133.488 188.393 133.391 188.454 133.291C188.456 133.289 188.458 133.286 188.461 133.284C188.463 133.277 188.465 133.27 188.468 133.263C188.528 133.169 188.585 133.072 188.636 132.973C188.636 132.97 188.636 132.968 188.636 132.965C188.677 132.882 188.715 132.797 188.749 132.711C188.759 132.685 188.768 132.659 188.777 132.633C188.787 132.605 188.796 132.576 188.805 132.548C188.831 132.466 188.855 132.384 188.875 132.3C188.878 132.296 188.88 132.291 188.882 132.286C188.885 132.279 188.887 132.272 188.89 132.265C188.916 132.155 188.937 132.044 188.953 131.932C188.968 131.841 188.98 131.749 188.988 131.656C188.988 131.647 188.988 131.637 188.988 131.628C188.995 131.517 188.998 131.406 188.995 131.295C188.992 131.225 188.988 131.154 188.981 131.083C188.976 131.007 188.969 130.932 188.96 130.857C188.96 130.854 188.96 130.852 188.96 130.85C188.958 130.838 188.955 130.826 188.953 130.814C188.936 130.712 188.915 130.61 188.89 130.51C188.89 130.505 188.89 130.501 188.89 130.496C188.867 130.405 188.841 130.316 188.812 130.227C188.803 130.201 188.794 130.175 188.784 130.149C188.773 130.121 188.761 130.092 188.749 130.064C188.719 129.983 188.686 129.903 188.65 129.824C188.648 129.821 188.646 129.819 188.643 129.817C188.641 129.809 188.639 129.802 188.636 129.795C188.585 129.694 188.529 129.594 188.468 129.498C188.461 129.486 188.454 129.474 188.447 129.463C188.442 129.453 188.437 129.444 188.432 129.434L188.32 129.265L138.226 50.0314C137.926 49.4145 137.458 48.8961 136.877 48.5365C136.295 48.1769 135.624 47.991 134.942 48.0005ZM131.399 64.1202V107.25L93.9033 123.42L131.399 64.1202ZM138.598 64.1202L176.093 123.42L138.598 107.25V64.1202ZM131.399 115.133V154.116L92.6729 131.847L131.399 115.133ZM138.598 115.133L177.324 131.847L138.598 154.116V115.133ZM185.423 145.866C184.787 145.862 184.161 146.028 183.609 146.347L134.998 174.305L86.3874 146.347C85.864 146.047 85.2741 145.884 84.6719 145.873C83.9998 145.859 83.3375 146.036 82.7599 146.382C82.1824 146.728 81.7126 147.23 81.4038 147.831C81.095 148.432 80.9596 149.108 81.0128 149.782C81.066 150.457 81.3057 151.103 81.7049 151.647L131.863 220.159C132.176 220.718 132.631 221.182 133.181 221.505C133.731 221.829 134.356 221.999 134.993 222C135.63 222.001 136.255 221.831 136.806 221.509C137.357 221.187 137.812 220.724 138.127 220.167L188.292 151.647C188.688 151.109 188.928 150.472 188.986 149.805C189.044 149.139 188.918 148.469 188.621 147.87C188.324 147.271 187.868 146.767 187.303 146.413C186.739 146.059 186.088 145.87 185.423 145.866ZM97.6085 161.15L131.399 180.589V207.309L97.6085 161.15ZM172.388 161.15L138.598 207.309V180.589L172.388 161.15Z" fill="white"/>
</g>
<circle cx="135.5" cy="135.5" r="110" stroke="white" stroke-width="9"/>
<defs>
<filter id="filter0_d_20_123" x="38" y="9.00012" width="194" height="260" filterUnits="userSpaceOnUse" color-interpolation-filters="sRGB">
<feFlood flood-opacity="0" result="BackgroundImageFix"/>
<feColorMatrix in="SourceAlpha" type="matrix" values="0 0 0 0 0 0 0 0 0 0 0 0 0 0 0 0 0 0 127 0" result="hardAlpha"/>
<feOffset dy="4"/>
<feGaussianBlur stdDeviation="21.5"/>
<feComposite in2="hardAlpha" operator="out"/>
<feColorMatrix type="matrix" values="0 0 0 0 0 0 0 0 0 0.854167 0 0 0 0 0.700417 0 0 0 1 0"/>
<feBlend mode="normal" in2="BackgroundImageFix" result="effect1_dropShadow_20_123"/>
<feBlend mode="normal" in="SourceGraphic" in2="effect1_dropShadow_20_123" result="shape"/>
</filter>
</defs>
</svg>
