<svg width="316" height="316" viewBox="0 0 316 316" fill="none" xmlns="http://www.w3.org/2000/svg">
<circle cx="158.5" cy="154.5" r="135.5" fill="#20AC93"/>
<g filter="url(#filter0_d_20_121)">
<path d="M158 39C94.5465 39 43 90.5465 43 154C43 217.454 94.5465 269 158 269C221.454 269 273 217.454 273 154C273 90.5465 221.454 39 158 39ZM158 49C216.049 49 263 95.9509 263 154C263 212.049 216.049 259 158 259C99.9509 259 53 212.049 53 154C53 95.9509 99.9509 49 158 49ZM138 79V94H113V214H138V229H148V214H158V229H168V213.951C179.491 213.626 207.004 210.405 207.004 179.996C207.004 158.996 188.996 152.002 181.496 151.002V150.504C184.996 149.504 202.502 144.002 202.502 123.502C202.502 97.9294 178.282 94.5572 168 94.1074V79H158V94H148V79H138ZM124.504 103.502H163.996C181.996 103.502 190.998 111.002 190.998 126.002C190.998 129.002 190.504 131.5 189.504 134C188.504 136.5 186.504 138.504 184.504 140.504C182.004 142.504 179.498 143.996 175.998 144.996C172.498 145.996 168.496 146.5 163.996 146.5H124.504V103.502ZM124.504 156.5H163.996C173.996 156.5 182.002 158.496 187.502 162.496C193.002 166.496 195.5 172.496 195.5 179.996C195.5 184.996 194.5 188.998 193 191.998C191 194.998 188.998 197.498 185.998 199.498C182.998 201.498 179.998 203.002 175.998 203.502C172.498 204.002 168.496 204.498 163.996 204.498H124.504V156.5Z" fill="white"/>
</g>
<defs>
<filter id="filter0_d_20_121" x="0" y="0" width="316" height="316" filterUnits="userSpaceOnUse" color-interpolation-filters="sRGB">
<feFlood flood-opacity="0" result="BackgroundImageFix"/>
<feColorMatrix in="SourceAlpha" type="matrix" values="0 0 0 0 0 0 0 0 0 0 0 0 0 0 0 0 0 0 127 0" result="hardAlpha"/>
<feOffset dy="4"/>
<feGaussianBlur stdDeviation="21.5"/>
<feComposite in2="hardAlpha" operator="out"/>
<feColorMatrix type="matrix" values="0 0 0 0 0 0 0 0 0 0.854167 0 0 0 0 0.700417 0 0 0 1 0"/>
<feBlend mode="normal" in2="BackgroundImageFix" result="effect1_dropShadow_20_121"/>
<feBlend mode="normal" in="SourceGraphic" in2="effect1_dropShadow_20_121" result="shape"/>
</filter>
</defs>
</svg>
